<svg width="110" height="100" viewBox="0 0 110 100" fill="none" xmlns="http://www.w3.org/2000/svg">
<path d="M79.898 60.035C88.3902 47.418 90.738 35.707 85.0152 29.984C77.2574 22.2262 58.5072 29.2809 41.3942 46.394C38.4059 49.3823 35.6715 52.4956 33.2536 55.644C26.8552 45.468 25.2419 36.792 28.5192 33.519C31.0036 31.0307 36.6169 31.3706 43.5312 34.4291C44.7968 34.9838 46.2734 34.4135 46.8281 33.1518C47.3867 31.8901 46.8164 30.4135 45.5508 29.8549C36.4102 25.8158 29.1058 25.8627 24.9848 29.9839C19.2621 35.7066 21.6098 47.4139 30.102 60.0349C27.7036 63.6287 25.7504 67.2145 24.3403 70.6558C20.8364 79.2183 21.063 86.0939 24.9848 90.0149C27.059 92.0891 29.9614 93.132 33.5082 93.132C36.6566 93.132 40.3129 92.3078 44.3442 90.6594C47.7856 89.2492 51.3715 87.2999 54.9692 84.8976C62.9028 90.2374 70.4772 93.1555 76.4302 93.1516C79.9458 93.1516 82.895 92.1399 85.02 90.0149C88.9419 86.093 89.1684 79.2178 85.6646 70.6558C84.2544 67.2144 82.3052 63.6286 79.9029 60.0349L79.898 60.035ZM76.4918 31.871C78.6676 31.871 80.3785 32.4179 81.4801 33.5194C84.7535 36.7928 83.1442 45.4724 76.7457 55.6444C74.3277 52.496 71.5973 49.3827 68.6051 46.3944C65.6285 43.4178 62.527 40.6952 59.359 38.2655C66.1051 34.0233 72.199 31.871 76.488 31.871H76.4918ZM44.9298 49.93C48.297 46.5628 51.6876 43.68 54.9848 41.2503C58.4418 43.7894 61.8286 46.6878 65.0708 49.93C68.3286 53.1878 71.2583 56.5902 73.77 60C71.3403 63.3047 68.4419 66.6992 65.0708 70.07C61.813 73.3278 58.4106 76.2575 55.0008 78.7692C51.6961 76.3395 48.3016 73.4411 44.9308 70.07C41.5597 66.6989 38.6613 63.3044 36.2316 60C38.7433 56.5859 41.673 53.1875 44.9308 49.93H44.9298ZM42.4493 86.032C35.9649 88.6843 30.8873 88.8484 28.5193 86.4812C26.1521 84.114 26.3123 79.0359 28.9685 72.5512C30.0505 69.9028 31.4958 67.1567 33.2419 64.3793C35.6247 67.4574 38.3474 70.559 41.3942 73.6059C44.441 76.6528 47.5387 79.3754 50.6208 81.7582C47.8435 83.5043 45.0978 84.9461 42.4493 86.032ZM81.4803 86.4812C78.203 89.7546 69.5273 88.1453 59.3553 81.7468C62.5037 79.3288 65.617 76.5984 68.6053 73.6062C71.6522 70.5593 74.3748 67.4578 76.7576 64.3796C78.5037 67.1569 79.949 69.903 81.031 72.5515C83.6833 79.0359 83.8475 84.1102 81.4803 86.4812ZM55.0003 68.5012C60.1019 68.5012 64.2503 64.3528 64.2503 59.2512C64.2503 54.1496 60.1019 50.0012 55.0003 50.0012C49.9026 50.0012 45.7542 54.1496 45.7542 59.2512C45.7542 64.3528 49.9026 68.5012 55.0003 68.5012ZM55.0003 55.0052C57.3441 55.0052 59.2503 56.9114 59.2503 59.2552C59.2503 61.599 57.3441 63.5052 55.0003 63.5052C52.6565 63.5052 50.7542 61.599 50.7542 59.2552C50.7542 56.9114 52.6604 55.0052 55.0003 55.0052Z" fill="black"/>
</svg>
