<svg width="110" height="90" viewBox="0 0 110 90" fill="none" xmlns="http://www.w3.org/2000/svg">
<path d="M47.836 7.297C40.0118 7.297 32.188 10.2775 26.231 16.2345C14.313 28.1525 14.313 47.5275 26.231 59.4455C36.344 69.5585 51.825 71.0905 63.563 64.0432L80.067 80.5472C82.9459 83.4261 87.6647 83.4261 90.544 80.5472C93.4229 77.6683 93.4229 72.9495 90.544 70.0702L74.04 53.5582C81.0869 41.8202 79.5556 26.3352 69.4462 16.2262C63.4892 10.2692 55.6652 7.2926 47.8412 7.2926L47.836 7.297ZM47.836 10.9767C54.7032 10.9767 61.57 13.6017 66.82 18.8517C77.32 29.3517 77.32 46.3287 66.82 56.8287C56.32 67.3287 39.347 67.3287 28.847 56.8287C18.347 46.3247 18.347 29.3517 28.847 18.8517C34.097 13.6017 40.968 10.9728 47.835 10.9728L47.836 10.9767ZM34.742 49.0817C34.2498 49.0817 33.7771 49.277 33.4295 49.6247C32.7068 50.3473 32.7068 51.5192 33.4295 52.2419C41.3709 60.1833 54.2965 60.1833 62.2385 52.2419C62.9611 51.5192 62.9611 50.3474 62.2385 49.6247C61.5158 48.902 60.344 48.902 59.6213 49.6247C53.0979 56.1481 42.5743 56.1481 36.0513 49.6247C35.7036 49.277 35.2303 49.0817 34.742 49.0817ZM71.906 56.6676L87.929 72.6906C89.4017 74.1633 89.4017 76.4562 87.929 77.9328C86.4563 79.4055 84.1634 79.4055 82.6907 77.9328L66.6637 61.9058C67.6246 61.1519 68.5543 60.3316 69.4371 59.4449C70.3238 58.5582 71.1441 57.6324 71.9019 56.6676H71.906Z" fill="black"/>
</svg>
